<svg id="visual" viewBox="0 0 1900 1000" width="1900" height="1000" xmlns="http://www.w3.org/2000/svg" xmlns:xlink="http://www.w3.org/1999/xlink" version="1.1"><rect x="0" y="0" width="1900" height="1000" fill="#931C1C"></rect><path d="M0 652L271 645L543 591L814 608L1086 719L1357 736L1629 642L1900 590L1900 1001L1629 1001L1357 1001L1086 1001L814 1001L543 1001L271 1001L0 1001Z" fill="#f5730a"></path><path d="M0 677L271 782L543 683L814 770L1086 726L1357 690L1629 736L1900 705L1900 1001L1629 1001L1357 1001L1086 1001L814 1001L543 1001L271 1001L0 1001Z" fill="#da5b09"></path><path d="M0 755L271 847L543 756L814 746L1086 739L1357 838L1629 852L1900 802L1900 1001L1629 1001L1357 1001L1086 1001L814 1001L543 1001L271 1001L0 1001Z" fill="#be4407"></path><path d="M0 874L271 902L543 858L814 867L1086 888L1357 887L1629 887L1900 852L1900 1001L1629 1001L1357 1001L1086 1001L814 1001L543 1001L271 1001L0 1001Z" fill="#a32d04"></path><path d="M0 952L271 922L543 949L814 920L1086 941L1357 929L1629 920L1900 948L1900 1001L1629 1001L1357 1001L1086 1001L814 1001L543 1001L271 1001L0 1001Z" fill="#871400"></path></svg>